<?xml version="1.0" encoding="utf-8"?>
<!-- Generator: Adobe Illustrator 24.1.2, SVG Export Plug-In . SVG Version: 6.00 Build 0)  -->
<svg version="1.1" id="Layer_2" xmlns="http://www.w3.org/2000/svg" xmlns:xlink="http://www.w3.org/1999/xlink" x="0px" y="0px"
	 viewBox="0 0 167 95" enable-background="new 0 0 167 95" xml:space="preserve">
<path fill="none" stroke="#000000" stroke-width="2" stroke-linecap="round" stroke-linejoin="round" d="M77.86,40.68
	c-2.18,0.8-4.55,1.65-6.51,2.34c-4.59,1.6-21.47,7.62-27.28,11.23c-5.81,3.62-14.23,9.5-18.67,14.08s-8.03,9-9.05,11.18
	c-1.02,2.17-2.12,4.75-2.33,6.68c-0.21,1.93-0.34,6.93-0.34,6.93"/>
<path fill="none" stroke="#000000" stroke-width="2" stroke-linecap="round" stroke-linejoin="round" d="M78.29,40.53
	c-0.18,0.2-0.32,0.37-0.42,0.5c-0.95,1.26-2.97,4.18-3.88,6c-0.91,1.82-1.75,4.13-0.98,6.15c0.77,2.02,3.53,3.82,5.4,3.78
	c1.87-0.03,6.62-0.71,8.94-1.63s5.16-2.81,5.62-3.88c0.46-1.07,1.18-3.19,0.44-5.49s-2.2-7.29-3.75-8.32
	c-1.54-1.02-4.01,0.08-5.48,0.67c-0.84,0.34-3.41,1.3-6.31,2.37"/>
<path fill="none" stroke="#000000" stroke-width="2" stroke-linecap="round" stroke-linejoin="round" d="M166,1
	c0,0-1.38,1.46-4.69,2.1c-3.32,0.64-14.62,2.31-24.38,4.7s-14.94,3.36-19.64,5.19c-4.7,1.84-10.96,4.71-14.17,6.77
	C99.9,21.83,89.29,29.9,86.38,32.59c-2.6,2.41-6.6,6.25-8.09,7.94"/>
<path fill="none" stroke="#000000" stroke-width="2" stroke-linecap="round" stroke-linejoin="round" d="M2,67.59
	c0,0,3.77,3.52,5.65,7.8c1.87,4.29,3.94,13.69,4.67,15.93c0.73,2.24,0.73,2.24,0.73,2.24l0,0c0,0,7.93-7.85,11.89-10.65
	s7.54-4.71,9.41-5.29c1.87-0.58,5.04-1.81,8.1-1.61"/>
</svg>
