<svg width="209" height="51" viewBox="0 0 209 51" fill="none" xmlns="http://www.w3.org/2000/svg">
<path d="M29.309 20.6671C26.2568 23.3632 23.1167 26.0812 20.207 28.9296C18.9161 30.1934 17.6356 31.4626 16.3249 32.7068C15.2825 33.6965 14.02 34.3821 12.9675 35.3561C10.1053 38.0047 6.3327 39.7725 2.52776 40.4972C2.32288 40.5363 1.5984 40.7497 1.63593 41.0874C1.69215 41.5934 3.68872 41.4465 3.97043 41.4678C5.65446 41.5948 7.27811 42.2393 8.91486 42.6219C10.9391 43.0951 12.9826 43.4306 15.0265 43.8023C18.4431 44.4235 21.3527 45.7917 24.5219 47.1073C26.5605 47.9535 28.7552 48.4829 30.7254 49.468M4.94312 40.046C22.0295 40.046 38.8752 42.0308 56.0007 41.5741C62.0331 41.4132 72.0795 40.7967 81.5729 38.6386M81.5729 38.6386C91.5413 36.3726 100.9 32.4067 104.362 25.4838C107.363 19.4818 100.85 14.656 95.9119 12.5396C88.4379 9.33647 83.4524 11.3268 78.1136 17.3937C73.6487 22.4675 66.8137 26.7429 72.1809 33.5739C74.1533 36.0842 77.5548 37.6726 81.5729 38.6386ZM81.5729 38.6386C90.8727 40.8745 103.475 39.776 109.305 39.0572C129.184 36.6064 150.738 28.388 169.442 21.169C179.353 17.3436 188.568 11.7957 198.387 7.68552C202.072 6.14258 205.907 5.07948 207.196 1.21344" stroke="black" stroke-width="2" stroke-linecap="round" stroke-linejoin="round"/>
</svg>
