<?xml version="1.0" encoding="utf-8"?>
<!-- Generator: Adobe Illustrator 24.1.2, SVG Export Plug-In . SVG Version: 6.00 Build 0)  -->
<svg version="1.1" id="Layer_1" xmlns="http://www.w3.org/2000/svg" xmlns:xlink="http://www.w3.org/1999/xlink" x="0px" y="0px"
	 viewBox="0 0 161 89" enable-background="new 0 0 161 89" xml:space="preserve">
<path fill="none" stroke="#000000" stroke-width="2" stroke-linecap="round" stroke-linejoin="round" d="M1,1
	c10.17,13.24,22.88,25.59,37.83,33.33c2.61,1.35,6.25,3.04,10.13,4.24 M48.97,38.58c5.82,1.81,12.16,2.54,16.26-0.58
	c8.13-6.19,6.54-17.41-3.56-19.83c-6.79-1.63-9.73,5.99-11.61,11.33C48.86,32.9,48.56,35.9,48.97,38.58z M48.97,38.58
	c2.09,13.73,22.78,18.63,35.7,21.92c22.08,5.63,46.29,13.62,69.33,8.5 M136.18,56.73c2.53,3.54,6.04,6.59,10.28,7.91
	c2,0.62,3.94,1.72,6.09,1.77c1.56,0.03,3.05,0.61,4.64,0.7c0.34,0.02,2.03-0.01,1.89,0.07c-0.49,0.24-1.03,0.32-1.55,0.54
	c-3.18,1.36-5.64,4.48-8.5,6.39c-2.61,1.74-5.11,3.39-7.41,5.53c-1.82,1.7-3.86,3.22-5.81,4.77c-0.63,0.5-2.23,1.97-2.23,2.78"/>
</svg>
