<?xml version="1.0" encoding="utf-8"?>
<!-- Generator: Adobe Illustrator 24.1.2, SVG Export Plug-In . SVG Version: 6.00 Build 0)  -->
<svg version="1.1" id="Layer_1" xmlns="http://www.w3.org/2000/svg" xmlns:xlink="http://www.w3.org/1999/xlink" x="0px" y="0px"
	 viewBox="0 0 612 1459.8" enable-background="new 0 0 612 1459.8" xml:space="preserve">
<path fill="none" stroke="#000000" stroke-miterlimit="10" d="M315,1280.2c3,22.9,5.9,48.5,4.3,69.4c-2,26.4-9.5,62.8-13,71.4"/>
<path fill="none" stroke="#000000" stroke-miterlimit="10" d="M309.3,1241.6c1.1,5.2,1.9,9.9,2.4,13.7c1,7.6,2.2,16.1,3.3,24.9"/>
<path fill="none" stroke="#000000" stroke-miterlimit="10" d="M295.4,1188.6c5.5,18.4,10.7,38,13.8,53"/>
<path fill="none" stroke="#000000" stroke-miterlimit="10" d="M291.4,1175.3c1.4,4.3,2.7,8.7,4.1,13.2"/>
<path fill="none" stroke="#000000" stroke-miterlimit="10" d="M286.2,1159.5c1.7,4.9,3.4,10.2,5.2,15.8"/>
<path fill="none" stroke="#000000" stroke-miterlimit="10" d="M239.4,986.6c1.2,8.9,2.5,17.8,4.1,26.8c9.5,54,16.5,82.5,35.2,126
	c2.1,4.9,4.7,11.9,7.5,20"/>
<path fill="none" stroke="#000000" stroke-miterlimit="10" d="M234,863.3c0,0.7-0.1,1.5-0.1,2.2c-1.1,34.4-0.4,76.7,5.4,121.1"/>
<path fill="none" stroke="#000000" stroke-miterlimit="10" d="M294,694c-13.7,24.4-28.7,51.2-36.9,71.3
	c-12.5,30.5-21.6,58-23.1,98.1"/>
<path fill="none" stroke="#000000" stroke-miterlimit="10" d="M266.3,377.3c8.6,23.5,20.5,50.2,29.9,70.2
	c13.6,29.2,31.4,73.3,34.9,105.7c3.5,32.4-2.2,74.6-17.1,104.1c-5.3,10.5-12.4,23.2-19.9,36.7"/>
<path fill="none" stroke="#000000" stroke-miterlimit="10" d="M258,205.7c-1.6,10.2-2.8,20.4-3.7,33.4c-2.4,32.4-3.3,81.4,2.9,108.6
	c2,8.6,5.2,18.8,9.2,29.6"/>
<path fill="none" stroke="#000000" stroke-miterlimit="10" d="M337.7,52.7c0,0-47.8,45.2-66.3,96.2c-10,27.5-11,41.8-13.4,56.9"/>
</svg>
